<svg xmlns="http://www.w3.org/2000/svg" viewBox="0 0 158.74 836.18"><defs><style>.cls-1{fill:#ffcd1a;}</style></defs><g id="Calque_2" data-name="Calque 2"><g id="Calque_2-2" data-name="Calque 2"><path class="cls-1" d="M77.19,833.63a6.24,6.24,0,0,1-4.81-2.18c-4.49-5.1-3.19-18.29-.87-36.36.32-2.44.62-4.81.88-7,.72-6.17-.13-651.18-.58-662.24-.16-4-.28-6.86-.29-8.06h-.11a4.32,4.32,0,0,0-.79.08c-.36,3.12-1.2,634.46-2.27,641.3-.85,5.44-1.68,9.79-2.48,12.93-1.23,4.88-2.47,7.7-5.16,7.7a3.57,3.57,0,0,1-2.79-1.34c-2.53-3-1.22-12.76-.19-18.42l.83-643.52C41.77,101.62,33.31,85,33.42,67c.21-34.18,31-60.62,32.33-61.73l2-1.65,1.64,1.95c6,7.06,8.64,20,9.55,25.48.85-.08,1.7-.11,2.56-.11,9.12,0,17,4.33,20.77,6.85,12.82-21.33,24.59-22.44,26.9-22.44h.34l2,.18.34,2c5.8,39.71,1.08,68.69-14,86.15a45.85,45.85,0,0,1-30.08,15.93c-.32,4.58-2.91,653.65-3.51,659.45.68,8.1,3.43,45.53-3.28,52.85A5,5,0,0,1,77.19,833.63Z"/><path d="M67.39,7.2c7.13,8.46,9.35,26.71,9.35,26.71a24.66,24.66,0,0,1,4.71-.44c11.81,0,21.56,8,21.56,8,12.87-22.83,24.58-23.6,26.11-23.6h.16c14.32,98-41.09,99.3-44,99.3H85.2V119c0,1.79-3.56,660.06-3.56,660.06s4.45,52.07-4.45,52.07S73,805.21,74.92,788.36c1-8.59-.85-666.73-.85-670.74,0-1.9-1.3-2.4-2.66-2.4a10.15,10.15,0,0,0-3.13.62s-4,661.39-7.57,661.39-.44-16.92-.44-16.92l.89-644.92C1.05,63.3,67.39,7.2,67.39,7.2M68,0,64.1,3.3C62.75,4.44,31.08,31.62,30.87,67,30.76,85.39,39.2,102.41,56,117.6l-.77,642.14c-2.89,15.94-.14,19.24.77,20.34a6.19,6.19,0,0,0,4.75,2.25c5.2,0,6.72-6,7.63-9.62q.73-2.9,1.5-7c.29,9.13.45,18.4,0,22.1-.25,2.19-.55,4.52-.87,7-2.48,19.34-3.72,32.45,1.49,38.38a8.83,8.83,0,0,0,6.72,3,7.62,7.62,0,0,0,5.62-2.56c2.49-2.72,5.31-8.77,5-31.7-.14-10.69-.89-20.54-1.08-22.85,1.09-10.36,2.74-650.63,3.33-657.2a48.86,48.86,0,0,0,29.64-16.54c15.6-18,20.51-47.71,14.6-88.19l-.58-4-4.1-.39h-.53c-3.45,0-15.08,1.63-27.73,21.48-4.5-2.64-11.74-5.89-19.94-5.89H81C79.79,21.86,77,10.64,71.3,3.91L68,0Z"/><path d="M73,49.35a3.79,3.79,0,1,1-3.79-3.79A3.79,3.79,0,0,1,73,49.35Z"/><path d="M100.94,57.81a5.05,5.05,0,1,1-5-5A5,5,0,0,1,100.94,57.81Z"/><path d="M76.08,75.84s-6-5.56-5.35-11.13c0,0-.89-2.89,5.35-1.33A94.32,94.32,0,0,1,86.32,66.5s2.67-.23-1.78,4.67l-4.46,4.9Z"/><path d="M90.28,91.72a14.58,14.58,0,0,1-5.42-1C77,87.45,74,81.81,75.73,73.45a1.95,1.95,0,1,1,3.81.79c-1.35,6.5.69,10.35,6.8,12.88,2.41,1,6.45,1,8.8-.59a4,4,0,0,0,1.71-3.69,1.94,1.94,0,1,1,3.87-.18,7.85,7.85,0,0,1-3.35,7A12.42,12.42,0,0,1,90.28,91.72Z"/><path d="M67.39,84.17a17,17,0,0,1-8.06-2.33c-3.59-2-5.12-5.22-5.12-11a1.94,1.94,0,0,1,3.88,0c0,5.41,1.53,6.69,3.09,7.54C67,81.59,71.27,80.74,75.47,75.6a1.94,1.94,0,0,1,3,2.45C75.13,82.14,71.47,84.17,67.39,84.17Z"/><polyline class="cls-1" points="36.08 61.34 31.92 61.34 1.94 72.99 1.94 78.64 30.44 68.54 36.08 68.54"/><polygon points="0 81.38 0 71.67 31.56 59.4 36.08 59.4 36.08 63.28 32.28 63.28 3.88 74.32 3.88 75.89 30.11 66.6 36.08 66.6 36.08 70.48 30.77 70.48 0 81.38"/><polyline class="cls-1" points="36.08 58.11 11.73 50.98 14.41 44.16 38.75 49.5"/><polygon points="35.53 59.97 9.16 52.25 13.2 41.91 39.16 47.6 38.33 51.4 15.61 46.41 14.31 49.72 36.62 56.25 35.53 59.97"/><polyline class="cls-1" points="39.49 46.83 20.79 31.69 25.84 29.32 43.14 40"/><polygon points="38.27 48.34 17.16 31.25 25.96 27.11 44.16 38.35 42.12 41.65 25.71 31.52 24.42 32.13 40.71 45.32 38.27 48.34"/><polyline class="cls-1" points="116.67 99.29 137.37 116.33 138.26 108.78 120.45 93.28"/><polygon points="138.88 120.09 115.44 100.79 117.9 97.79 135.86 112.58 136.22 109.57 119.18 94.75 121.73 91.82 140.31 107.99 138.88 120.09"/><polyline class="cls-1" points="124.4 85.86 146.74 91.47 145.46 85.37 127.54 79.13"/><polygon points="149.28 94.11 123.93 87.74 124.87 83.98 144.2 88.83 143.78 86.84 126.9 80.96 128.18 77.29 147.13 83.9 149.28 94.11"/><polyline class="cls-1" points="130.58 62.26 155.74 58.11 156.63 66.57 128.35 73.25"/><polygon points="128.8 75.14 127.91 71.36 154.52 65.07 154.03 60.36 130.9 64.18 130.27 60.35 157.45 55.86 158.74 68.06 128.8 75.14"/></g></g></svg>